<mxfile host="app.diagrams.net" agent="Mozilla/5.0 (Windows NT 10.0; Win64; x64) AppleWebKit/537.36 (KHTML, like Gecko) Chrome/135.0.0.0 Safari/537.36" version="26.2.14">
  <diagram name="Page-1" id="Ecrrc2tl-d1s1pwAPpYd">
    <mxGraphModel grid="1" page="1" gridSize="10" guides="1" tooltips="1" connect="1" arrows="1" fold="1" pageScale="1" pageWidth="827" pageHeight="1169" math="0" shadow="0">
      <root>
        <mxCell id="0" />
        <mxCell id="1" parent="0" />
        <mxCell id="qsIPzJusycJK5DdHI7R6-11" value="&lt;font style=&quot;font-size: 24px;&quot;&gt;Fichero Datos&lt;/font&gt;" style="rounded=0;whiteSpace=wrap;html=1;fillColor=#FFF2CC;strokeColor=#FFD966;" vertex="1" parent="1">
          <mxGeometry x="-675.36" y="1465" width="355.36" height="210" as="geometry" />
        </mxCell>
        <mxCell id="NqaPB1KXI2ykwHzVykS_-30" value="" style="group" vertex="1" connectable="0" parent="1">
          <mxGeometry x="20" y="370" width="1230" height="1410" as="geometry" />
        </mxCell>
        <mxCell id="WieIRz2uZ_1Pn1ENADYT-11" value="" style="group" vertex="1" connectable="0" parent="NqaPB1KXI2ykwHzVykS_-30">
          <mxGeometry x="-200" width="1380" height="1410" as="geometry" />
        </mxCell>
        <mxCell id="NqaPB1KXI2ykwHzVykS_-17" value="" style="rounded=0;whiteSpace=wrap;html=1;fillColor=#ffe6cc;strokeColor=#d79b00;" vertex="1" parent="WieIRz2uZ_1Pn1ENADYT-11">
          <mxGeometry x="20" width="1360" height="1310" as="geometry" />
        </mxCell>
        <mxCell id="NqaPB1KXI2ykwHzVykS_-16" value="" style="outlineConnect=0;dashed=0;verticalLabelPosition=bottom;verticalAlign=top;align=center;html=1;shape=mxgraph.aws3.virtual_private_cloud;fillColor=#F58534;gradientColor=none;" vertex="1" parent="WieIRz2uZ_1Pn1ENADYT-11">
          <mxGeometry x="1134.985735294118" width="216.04779411764704" height="116.66666666666666" as="geometry" />
        </mxCell>
        <mxCell id="WieIRz2uZ_1Pn1ENADYT-12" value="" style="group" vertex="1" connectable="0" parent="WieIRz2uZ_1Pn1ENADYT-11">
          <mxGeometry x="1020.0044444444443" y="190.00111111111107" width="350" height="124.77" as="geometry" />
        </mxCell>
        <mxCell id="NqaPB1KXI2ykwHzVykS_-15" value="&lt;font style=&quot;font-size: 18px;&quot;&gt;DynamoDB&lt;/font&gt;" style="rounded=0;whiteSpace=wrap;html=1;fillColor=#f5f5f5;strokeColor=#666666;fontColor=#333333;" vertex="1" parent="WieIRz2uZ_1Pn1ENADYT-12">
          <mxGeometry y="16.97777777777779" width="308.61111111111114" height="106.66666666666666" as="geometry" />
        </mxCell>
        <mxCell id="NqaPB1KXI2ykwHzVykS_-9" value="" style="outlineConnect=0;dashed=0;verticalLabelPosition=bottom;verticalAlign=top;align=center;html=1;shape=mxgraph.aws3.dynamo_db;fillColor=#2E73B8;gradientColor=none;" vertex="1" parent="WieIRz2uZ_1Pn1ENADYT-12">
          <mxGeometry x="224.44444444444454" width="112.22222222222221" height="103.17460317460318" as="geometry" />
        </mxCell>
        <mxCell id="WieIRz2uZ_1Pn1ENADYT-30" value="AWS - DynamoDB" style="text;html=1;align=center;verticalAlign=middle;whiteSpace=wrap;rounded=0;" vertex="1" parent="WieIRz2uZ_1Pn1ENADYT-12">
          <mxGeometry x="185.64" y="103.17" width="144.36" height="30" as="geometry" />
        </mxCell>
        <mxCell id="NqaPB1KXI2ykwHzVykS_-2" value="" style="rounded=0;whiteSpace=wrap;html=1;fillColor=#f5f5f5;strokeColor=#666666;fontColor=#333333;" vertex="1" parent="WieIRz2uZ_1Pn1ENADYT-11">
          <mxGeometry x="100" y="580" width="889.17" height="433.65" as="geometry" />
        </mxCell>
        <mxCell id="NqaPB1KXI2ykwHzVykS_-1" value="" style="outlineConnect=0;dashed=0;verticalLabelPosition=bottom;verticalAlign=top;align=center;html=1;shape=mxgraph.aws3.ec2;fillColor=#F58534;gradientColor=none;" vertex="1" parent="WieIRz2uZ_1Pn1ENADYT-11">
          <mxGeometry x="880.1722222222222" y="529.9960317460318" width="149.3958333333334" height="160" as="geometry" />
        </mxCell>
        <mxCell id="NqaPB1KXI2ykwHzVykS_-6" value="" style="edgeStyle=orthogonalEdgeStyle;rounded=0;orthogonalLoop=1;jettySize=auto;html=1;" edge="1" parent="WieIRz2uZ_1Pn1ENADYT-11" source="NqaPB1KXI2ykwHzVykS_-3" target="NqaPB1KXI2ykwHzVykS_-4">
          <mxGeometry relative="1" as="geometry">
            <Array as="points">
              <mxPoint x="400" y="870" />
              <mxPoint x="400" y="870" />
            </Array>
          </mxGeometry>
        </mxCell>
        <mxCell id="NqaPB1KXI2ykwHzVykS_-7" value="" style="edgeStyle=orthogonalEdgeStyle;rounded=0;orthogonalLoop=1;jettySize=auto;html=1;" edge="1" parent="WieIRz2uZ_1Pn1ENADYT-11" source="NqaPB1KXI2ykwHzVykS_-4" target="NqaPB1KXI2ykwHzVykS_-3">
          <mxGeometry relative="1" as="geometry">
            <Array as="points">
              <mxPoint x="708.6144444444444" y="865.0753968253968" />
              <mxPoint x="708.6144444444444" y="865.0753968253968" />
            </Array>
          </mxGeometry>
        </mxCell>
        <mxCell id="WieIRz2uZ_1Pn1ENADYT-22" value="AWS - EC2" style="text;html=1;align=center;verticalAlign=middle;whiteSpace=wrap;rounded=0;" vertex="1" parent="WieIRz2uZ_1Pn1ENADYT-11">
          <mxGeometry x="907" y="685" width="90" height="30" as="geometry" />
        </mxCell>
        <mxCell id="WieIRz2uZ_1Pn1ENADYT-10" value="" style="group" vertex="1" connectable="0" parent="WieIRz2uZ_1Pn1ENADYT-11">
          <mxGeometry x="90" y="28.02" width="818.54" height="134.6" as="geometry" />
        </mxCell>
        <mxCell id="NqaPB1KXI2ykwHzVykS_-11" value="&lt;font style=&quot;font-size: 36px;&quot;&gt;API Gateway&lt;/font&gt;" style="rounded=0;whiteSpace=wrap;html=1;fillColor=#f5f5f5;strokeColor=#666666;fontColor=#333333;" vertex="1" parent="WieIRz2uZ_1Pn1ENADYT-10">
          <mxGeometry y="16.64" width="818.54" height="103.36" as="geometry" />
        </mxCell>
        <mxCell id="NqaPB1KXI2ykwHzVykS_-10" value="" style="outlineConnect=0;dashed=0;verticalLabelPosition=bottom;verticalAlign=top;align=center;html=1;shape=mxgraph.aws3.api_gateway;fillColor=#D9A741;gradientColor=none;" vertex="1" parent="WieIRz2uZ_1Pn1ENADYT-10">
          <mxGeometry x="697.9995531914891" y="-30" width="133.23044680851058" height="134.6" as="geometry" />
        </mxCell>
        <mxCell id="WieIRz2uZ_1Pn1ENADYT-29" value="AWS - API Gateway" style="text;html=1;align=center;verticalAlign=middle;whiteSpace=wrap;rounded=0;" vertex="1" parent="WieIRz2uZ_1Pn1ENADYT-10">
          <mxGeometry x="690.61" y="100" width="148" height="30" as="geometry" />
        </mxCell>
        <mxCell id="WieIRz2uZ_1Pn1ENADYT-44" value="" style="rounded=0;whiteSpace=wrap;html=1;fillColor=#D4E1F5;" vertex="1" parent="WieIRz2uZ_1Pn1ENADYT-11">
          <mxGeometry x="211.46000000000004" y="715" width="680" height="280" as="geometry" />
        </mxCell>
        <mxCell id="NqaPB1KXI2ykwHzVykS_-4" value="&lt;font style=&quot;font-size: 14px;&quot;&gt;Modelo ML&lt;/font&gt;" style="rounded=0;whiteSpace=wrap;html=1;" vertex="1" parent="WieIRz2uZ_1Pn1ENADYT-11">
          <mxGeometry x="240" y="900" width="622.92" height="79.36" as="geometry" />
        </mxCell>
        <mxCell id="WieIRz2uZ_1Pn1ENADYT-13" value="" style="group" vertex="1" connectable="0" parent="WieIRz2uZ_1Pn1ENADYT-11">
          <mxGeometry x="470" y="310" width="350" height="109.16" as="geometry" />
        </mxCell>
        <mxCell id="NqaPB1KXI2ykwHzVykS_-13" value="&lt;font style=&quot;font-size: 14px;&quot;&gt;Middleware&lt;br&gt;(Python)&lt;/font&gt;" style="rounded=0;whiteSpace=wrap;html=1;fillColor=#f5f5f5;fontColor=#333333;strokeColor=#666666;" vertex="1" parent="WieIRz2uZ_1Pn1ENADYT-13">
          <mxGeometry y="13.94787056937622" width="310.6764080925769" height="95.20937736487261" as="geometry" />
        </mxCell>
        <mxCell id="NqaPB1KXI2ykwHzVykS_-14" value="" style="outlineConnect=0;dashed=0;verticalLabelPosition=bottom;verticalAlign=top;align=center;html=1;shape=mxgraph.aws3.lambda_function;fillColor=#F58534;gradientColor=none;" vertex="1" parent="WieIRz2uZ_1Pn1ENADYT-13">
          <mxGeometry x="248.54" width="91.46" height="87.33" as="geometry" />
        </mxCell>
        <mxCell id="WieIRz2uZ_1Pn1ENADYT-24" value="AWS - Lambda" style="text;html=1;align=center;verticalAlign=middle;whiteSpace=wrap;rounded=0;" vertex="1" parent="WieIRz2uZ_1Pn1ENADYT-13">
          <mxGeometry x="220" y="76.13" width="110" height="33.02" as="geometry" />
        </mxCell>
        <mxCell id="WieIRz2uZ_1Pn1ENADYT-14" value="" style="group" vertex="1" connectable="0" parent="WieIRz2uZ_1Pn1ENADYT-11">
          <mxGeometry x="50" y="310.01" width="360" height="105" as="geometry" />
        </mxCell>
        <mxCell id="WieIRz2uZ_1Pn1ENADYT-15" value="&lt;font style=&quot;font-size: 14px;&quot;&gt;Middleware&lt;br&gt;(Python)&lt;/font&gt;" style="rounded=0;whiteSpace=wrap;html=1;fillColor=#f5f5f5;fontColor=#333333;strokeColor=#666666;" vertex="1" parent="WieIRz2uZ_1Pn1ENADYT-14">
          <mxGeometry y="13.416666666666645" width="330.09708737864077" height="91.5833333333333" as="geometry" />
        </mxCell>
        <mxCell id="WieIRz2uZ_1Pn1ENADYT-16" value="" style="outlineConnect=0;dashed=0;verticalLabelPosition=bottom;verticalAlign=top;align=center;html=1;shape=mxgraph.aws3.lambda_function;fillColor=#F58534;gradientColor=none;" vertex="1" parent="WieIRz2uZ_1Pn1ENADYT-14">
          <mxGeometry x="264.08" width="95.92" height="84" as="geometry" />
        </mxCell>
        <mxCell id="WieIRz2uZ_1Pn1ENADYT-23" value="AWS - Lambda" style="text;html=1;align=center;verticalAlign=middle;whiteSpace=wrap;rounded=0;" vertex="1" parent="WieIRz2uZ_1Pn1ENADYT-14">
          <mxGeometry x="230" y="74.99999999999989" width="110" height="30" as="geometry" />
        </mxCell>
        <mxCell id="WieIRz2uZ_1Pn1ENADYT-56" value="" style="shape=flexArrow;endArrow=classic;startArrow=classic;html=1;rounded=0;fillColor=#FFFFFF;strokeColor=#000000;" edge="1" parent="WieIRz2uZ_1Pn1ENADYT-11">
          <mxGeometry width="100" height="100" relative="1" as="geometry">
            <mxPoint x="260" y="320.32" as="sourcePoint" />
            <mxPoint x="260" y="150.32" as="targetPoint" />
          </mxGeometry>
        </mxCell>
        <mxCell id="WieIRz2uZ_1Pn1ENADYT-57" value="" style="shape=flexArrow;endArrow=classic;startArrow=classic;html=1;rounded=0;fillColor=#FFFFFF;strokeColor=#000000;" edge="1" parent="WieIRz2uZ_1Pn1ENADYT-11">
          <mxGeometry width="100" height="100" relative="1" as="geometry">
            <mxPoint x="580" y="320" as="sourcePoint" />
            <mxPoint x="580" y="150" as="targetPoint" />
          </mxGeometry>
        </mxCell>
        <mxCell id="WieIRz2uZ_1Pn1ENADYT-59" value="" style="shape=flexArrow;endArrow=classic;startArrow=classic;html=1;rounded=0;fillColor=#FFFFFF;strokeColor=#000000;entryX=0.25;entryY=1;entryDx=0;entryDy=0;" edge="1" parent="WieIRz2uZ_1Pn1ENADYT-11" source="NqaPB1KXI2ykwHzVykS_-13" target="NqaPB1KXI2ykwHzVykS_-15">
          <mxGeometry width="100" height="100" relative="1" as="geometry">
            <mxPoint x="450" y="350" as="sourcePoint" />
            <mxPoint x="1174" y="310" as="targetPoint" />
            <Array as="points">
              <mxPoint x="1097" y="372" />
            </Array>
          </mxGeometry>
        </mxCell>
        <mxCell id="WieIRz2uZ_1Pn1ENADYT-61" value="&lt;font style=&quot;font-size: 14px;&quot;&gt;Amaxon Linux&lt;/font&gt;" style="text;html=1;align=center;verticalAlign=middle;whiteSpace=wrap;rounded=0;" vertex="1" parent="WieIRz2uZ_1Pn1ENADYT-11">
          <mxGeometry x="120" y="620" width="120" height="30" as="geometry" />
        </mxCell>
        <mxCell id="WieIRz2uZ_1Pn1ENADYT-45" value="" style="image;sketch=0;aspect=fixed;html=1;points=[];align=center;fontSize=12;image=img/lib/mscae/Docker.svg;" vertex="1" parent="WieIRz2uZ_1Pn1ENADYT-11">
          <mxGeometry x="704.37" y="660" width="158.55" height="130" as="geometry" />
        </mxCell>
        <mxCell id="NqaPB1KXI2ykwHzVykS_-3" value="&lt;font style=&quot;font-size: 14px;&quot;&gt;Interfaz: HTTP Endpoint&lt;br&gt;Python - Flask&lt;/font&gt;" style="rounded=0;whiteSpace=wrap;html=1;" vertex="1" parent="WieIRz2uZ_1Pn1ENADYT-11">
          <mxGeometry x="240" y="752.78" width="622.92" height="88.09" as="geometry" />
        </mxCell>
        <mxCell id="WieIRz2uZ_1Pn1ENADYT-62" value="" style="shape=flexArrow;endArrow=classic;startArrow=classic;html=1;rounded=0;entryX=0.541;entryY=0.99;entryDx=0;entryDy=0;exitX=0.25;exitY=0;exitDx=0;exitDy=0;entryPerimeter=0;fillColor=#FFFFFF;strokeColor=#000000;" edge="1" parent="WieIRz2uZ_1Pn1ENADYT-11" source="NqaPB1KXI2ykwHzVykS_-3" target="WieIRz2uZ_1Pn1ENADYT-15">
          <mxGeometry width="100" height="100" relative="1" as="geometry">
            <mxPoint x="180" y="550" as="sourcePoint" />
            <mxPoint x="280" y="450" as="targetPoint" />
            <Array as="points">
              <mxPoint x="396" y="500" />
              <mxPoint x="229" y="500" />
            </Array>
          </mxGeometry>
        </mxCell>
        <mxCell id="WieIRz2uZ_1Pn1ENADYT-63" value="" style="shape=flexArrow;endArrow=classic;startArrow=classic;html=1;rounded=0;entryX=0.541;entryY=0.99;entryDx=0;entryDy=0;exitX=0.478;exitY=-0.03;exitDx=0;exitDy=0;entryPerimeter=0;exitPerimeter=0;fillColor=#FFFFFF;strokeColor=#000000;" edge="1" parent="WieIRz2uZ_1Pn1ENADYT-11" source="NqaPB1KXI2ykwHzVykS_-3">
          <mxGeometry width="100" height="100" relative="1" as="geometry">
            <mxPoint x="857" y="758.16" as="sourcePoint" />
            <mxPoint x="690" y="419.16" as="targetPoint" />
            <Array as="points">
              <mxPoint x="538" y="510" />
              <mxPoint x="690" y="510" />
            </Array>
          </mxGeometry>
        </mxCell>
        <mxCell id="WieIRz2uZ_1Pn1ENADYT-64" value="" style="shape=flexArrow;endArrow=classic;startArrow=classic;html=1;rounded=0;entryX=0.5;entryY=1;entryDx=0;entryDy=0;fillColor=#FFFFFF;strokeColor=#000000;" edge="1" parent="WieIRz2uZ_1Pn1ENADYT-11" source="NqaPB1KXI2ykwHzVykS_-4" target="NqaPB1KXI2ykwHzVykS_-3">
          <mxGeometry width="100" height="100" relative="1" as="geometry">
            <mxPoint x="450" y="560" as="sourcePoint" />
            <mxPoint x="550" y="460" as="targetPoint" />
          </mxGeometry>
        </mxCell>
        <mxCell id="qsIPzJusycJK5DdHI7R6-1" value="&lt;font style=&quot;font-size: 24px;&quot;&gt;S3 Bucket&lt;/font&gt;" style="rounded=0;whiteSpace=wrap;html=1;fillColor=#F5F5F5;strokeColor=#666666;" vertex="1" parent="WieIRz2uZ_1Pn1ENADYT-11">
          <mxGeometry x="120" y="1110" width="550" height="180" as="geometry" />
        </mxCell>
        <mxCell id="qsIPzJusycJK5DdHI7R6-2" value="" style="outlineConnect=0;dashed=0;verticalLabelPosition=bottom;verticalAlign=top;align=center;html=1;shape=mxgraph.aws3.s3;fillColor=#E05243;gradientColor=none;" vertex="1" parent="WieIRz2uZ_1Pn1ENADYT-11">
          <mxGeometry x="560" y="1050" width="150" height="183" as="geometry" />
        </mxCell>
        <mxCell id="qsIPzJusycJK5DdHI7R6-3" value="AWS- S3" style="text;html=1;align=center;verticalAlign=middle;whiteSpace=wrap;rounded=0;" vertex="1" parent="WieIRz2uZ_1Pn1ENADYT-11">
          <mxGeometry x="605" y="1260" width="60" height="30" as="geometry" />
        </mxCell>
        <mxCell id="qsIPzJusycJK5DdHI7R6-8" value="" style="shape=flexArrow;endArrow=classic;html=1;rounded=0;entryX=0.5;entryY=1;entryDx=0;entryDy=0;fillColor=#FFFFFF;" edge="1" parent="WieIRz2uZ_1Pn1ENADYT-11" source="qsIPzJusycJK5DdHI7R6-1" target="NqaPB1KXI2ykwHzVykS_-15">
          <mxGeometry width="50" height="50" relative="1" as="geometry">
            <mxPoint x="670" y="1200" as="sourcePoint" />
            <mxPoint x="-170" y="1180" as="targetPoint" />
            <Array as="points">
              <mxPoint x="1174" y="1200" />
            </Array>
          </mxGeometry>
        </mxCell>
        <mxCell id="qsIPzJusycJK5DdHI7R6-4" value="" style="group" connectable="0" vertex="1" parent="WieIRz2uZ_1Pn1ENADYT-11">
          <mxGeometry x="1010" y="1140" width="360" height="105" as="geometry" />
        </mxCell>
        <mxCell id="qsIPzJusycJK5DdHI7R6-5" value="&lt;span style=&quot;font-size: 14px;&quot;&gt;Data loader&lt;br&gt;(Python)&lt;/span&gt;" style="rounded=0;whiteSpace=wrap;html=1;fillColor=#f5f5f5;fontColor=#333333;strokeColor=#666666;" vertex="1" parent="qsIPzJusycJK5DdHI7R6-4">
          <mxGeometry y="13.416666666666645" width="330.09708737864077" height="91.5833333333333" as="geometry" />
        </mxCell>
        <mxCell id="qsIPzJusycJK5DdHI7R6-6" value="" style="outlineConnect=0;dashed=0;verticalLabelPosition=bottom;verticalAlign=top;align=center;html=1;shape=mxgraph.aws3.lambda_function;fillColor=#F58534;gradientColor=none;" vertex="1" parent="qsIPzJusycJK5DdHI7R6-4">
          <mxGeometry x="264.08" width="95.92" height="84" as="geometry" />
        </mxCell>
        <mxCell id="qsIPzJusycJK5DdHI7R6-7" value="AWS - Lambda" style="text;html=1;align=center;verticalAlign=middle;whiteSpace=wrap;rounded=0;" vertex="1" parent="qsIPzJusycJK5DdHI7R6-4">
          <mxGeometry x="230" y="74.99999999999989" width="110" height="30" as="geometry" />
        </mxCell>
        <mxCell id="WieIRz2uZ_1Pn1ENADYT-5" value="" style="group" vertex="1" connectable="0" parent="1">
          <mxGeometry x="-675.36" y="324" width="331" height="170" as="geometry" />
        </mxCell>
        <mxCell id="NqaPB1KXI2ykwHzVykS_-25" value="&lt;font style=&quot;font-size: 24px;&quot;&gt;PowerBI&lt;/font&gt;" style="rounded=0;whiteSpace=wrap;html=1;fillColor=#dae8fc;strokeColor=#6c8ebf;" vertex="1" parent="WieIRz2uZ_1Pn1ENADYT-5">
          <mxGeometry y="10" width="320" height="160" as="geometry" />
        </mxCell>
        <mxCell id="NqaPB1KXI2ykwHzVykS_-24" value="" style="image;aspect=fixed;html=1;points=[];align=center;fontSize=12;image=img/lib/azure2/power_platform/PowerBI.svg;" vertex="1" parent="WieIRz2uZ_1Pn1ENADYT-5">
          <mxGeometry x="250" width="81" height="108" as="geometry" />
        </mxCell>
        <mxCell id="WieIRz2uZ_1Pn1ENADYT-2" value="&lt;font style=&quot;font-size: 14px;&quot;&gt;Python&lt;/font&gt;" style="rounded=0;whiteSpace=wrap;html=1;fillColor=#E6FFCC;" vertex="1" parent="WieIRz2uZ_1Pn1ENADYT-5">
          <mxGeometry x="100" y="130" width="120" height="30" as="geometry" />
        </mxCell>
        <mxCell id="WieIRz2uZ_1Pn1ENADYT-6" value="" style="group" vertex="1" connectable="0" parent="1">
          <mxGeometry x="-640" y="584" width="295.29" height="180" as="geometry" />
        </mxCell>
        <mxCell id="NqaPB1KXI2ykwHzVykS_-27" value="&lt;font style=&quot;font-size: 24px;&quot;&gt;NEON&lt;/font&gt;" style="rounded=0;whiteSpace=wrap;html=1;fillColor=#d5e8d4;strokeColor=#82b366;" vertex="1" parent="WieIRz2uZ_1Pn1ENADYT-6">
          <mxGeometry y="20" width="250" height="160" as="geometry" />
        </mxCell>
        <mxCell id="WieIRz2uZ_1Pn1ENADYT-41" value="PostgreSQL" style="text;html=1;align=center;verticalAlign=middle;whiteSpace=wrap;rounded=0;" vertex="1" parent="WieIRz2uZ_1Pn1ENADYT-6">
          <mxGeometry x="190" y="120" width="60" height="30" as="geometry" />
        </mxCell>
        <mxCell id="WieIRz2uZ_1Pn1ENADYT-43" value="" style="image;aspect=fixed;html=1;points=[];align=center;fontSize=12;image=img/lib/azure2/databases/Azure_Database_PostgreSQL_Server_Group.svg;" vertex="1" parent="WieIRz2uZ_1Pn1ENADYT-6">
          <mxGeometry x="185" y="-18" width="110.29" height="125" as="geometry" />
        </mxCell>
        <mxCell id="NqaPB1KXI2ykwHzVykS_-28" value="" style="shape=flexArrow;endArrow=classic;startArrow=classic;html=1;rounded=0;fillColor=#FFFFFF;" edge="1" parent="1" source="NqaPB1KXI2ykwHzVykS_-25" target="NqaPB1KXI2ykwHzVykS_-27">
          <mxGeometry width="100" height="100" relative="1" as="geometry">
            <mxPoint x="-250" y="663.9999999999999" as="sourcePoint" />
            <mxPoint x="-150" y="563.9999999999999" as="targetPoint" />
          </mxGeometry>
        </mxCell>
        <mxCell id="WieIRz2uZ_1Pn1ENADYT-31" value="&lt;font style=&quot;font-size: 24px;&quot;&gt;Docker Hub&lt;/font&gt;" style="rounded=0;whiteSpace=wrap;html=1;fillColor=#A9C4EB;strokeColor=#0000FF;" vertex="1" parent="1">
          <mxGeometry x="-569.9999999999999" y="1120" width="355.64" height="210" as="geometry" />
        </mxCell>
        <mxCell id="WieIRz2uZ_1Pn1ENADYT-36" value="" style="shape=flexArrow;endArrow=classic;startArrow=classic;html=1;rounded=0;entryX=0;entryY=0.5;entryDx=0;entryDy=0;exitX=1;exitY=0.5;exitDx=0;exitDy=0;fillColor=#FFFFFF;" edge="1" parent="1" source="WieIRz2uZ_1Pn1ENADYT-31" target="WieIRz2uZ_1Pn1ENADYT-44">
          <mxGeometry width="100" height="100" relative="1" as="geometry">
            <mxPoint x="-310" y="1250" as="sourcePoint" />
            <mxPoint x="-210" y="1150" as="targetPoint" />
          </mxGeometry>
        </mxCell>
        <mxCell id="WieIRz2uZ_1Pn1ENADYT-38" value="" style="shape=image;html=1;verticalAlign=top;verticalLabelPosition=bottom;labelBackgroundColor=#ffffff;imageAspect=0;aspect=fixed;image=https://cdn1.iconfinder.com/data/icons/unicons-line-vol-3/24/docker-128.png" vertex="1" parent="1">
          <mxGeometry x="-370" y="1040" width="208" height="208" as="geometry" />
        </mxCell>
        <mxCell id="WieIRz2uZ_1Pn1ENADYT-40" value="" style="shape=flexArrow;endArrow=classic;startArrow=classic;html=1;rounded=0;fillColor=#FFFFFF;exitX=1;exitY=0.5;exitDx=0;exitDy=0;" edge="1" parent="1" source="WieIRz2uZ_1Pn1ENADYT-2" target="NqaPB1KXI2ykwHzVykS_-11">
          <mxGeometry width="100" height="100" relative="1" as="geometry">
            <mxPoint x="-200" y="860" as="sourcePoint" />
            <mxPoint x="-100" y="760" as="targetPoint" />
          </mxGeometry>
        </mxCell>
        <mxCell id="qsIPzJusycJK5DdHI7R6-10" value="" style="dashed=0;outlineConnect=0;html=1;align=center;labelPosition=center;verticalLabelPosition=bottom;verticalAlign=top;shape=mxgraph.weblogos.json" vertex="1" parent="1">
          <mxGeometry x="-440" y="1400" width="130" height="144.8" as="geometry" />
        </mxCell>
        <mxCell id="qsIPzJusycJK5DdHI7R6-15" value="" style="shape=flexArrow;endArrow=classic;html=1;rounded=0;entryX=0.011;entryY=0.559;entryDx=0;entryDy=0;entryPerimeter=0;exitX=0.5;exitY=1;exitDx=0;exitDy=0;fillColor=#FFFFFF;" edge="1" parent="1" source="NqaPB1KXI2ykwHzVykS_-27" target="qsIPzJusycJK5DdHI7R6-11">
          <mxGeometry width="50" height="50" relative="1" as="geometry">
            <mxPoint x="-650" y="1170" as="sourcePoint" />
            <mxPoint x="-600" y="1120" as="targetPoint" />
            <Array as="points">
              <mxPoint x="-515" y="820" />
              <mxPoint x="-750" y="820" />
              <mxPoint x="-750" y="1582" />
            </Array>
          </mxGeometry>
        </mxCell>
        <mxCell id="qsIPzJusycJK5DdHI7R6-12" value="&lt;font style=&quot;font-size: 18px;&quot;&gt;07_carga_datos_S3.ypynb&lt;/font&gt;" style="rounded=0;whiteSpace=wrap;html=1;fillColor=#E6FFCC;strokeColor=#97D077;" vertex="1" parent="1">
          <mxGeometry x="-880" y="870" width="260" height="200" as="geometry" />
        </mxCell>
        <mxCell id="qsIPzJusycJK5DdHI7R6-16" value="" style="shape=flexArrow;endArrow=classic;html=1;rounded=0;entryX=0;entryY=0.5;entryDx=0;entryDy=0;fillColor=#FFFFFF;" edge="1" parent="1" source="qsIPzJusycJK5DdHI7R6-11" target="qsIPzJusycJK5DdHI7R6-1">
          <mxGeometry width="50" height="50" relative="1" as="geometry">
            <mxPoint x="-280" y="1780" as="sourcePoint" />
            <mxPoint x="-230" y="1730" as="targetPoint" />
          </mxGeometry>
        </mxCell>
      </root>
    </mxGraphModel>
  </diagram>
</mxfile>
